<?xml version="1.0" encoding="utf-8"?>
<!-- Generator: Adobe Illustrator 27.7.0, SVG Export Plug-In . SVG Version: 6.00 Build 0)  -->
<svg version="1.1" id="Layer_1" xmlns="http://www.w3.org/2000/svg" xmlns:xlink="http://www.w3.org/1999/xlink" x="0px" y="0px"
	 viewBox="0 0 160 48" style="enable-background:new 0 0 160 48;" xml:space="preserve">
<style type="text/css">
	.st0{fill:#364078;}
	.st1{fill:#FFB62E;}
</style>
<g>
	<path class="st0" d="M13.4,39.8c-2.9,0-5.4-1-7.5-3.1s-3.1-4.5-3.1-7.5c0-2.5,0.9-4.6,2.6-6.4s3.9-2.6,6.4-2.6c2.3,0,4.2,0.7,5.9,2
		c1.7,1.3,2.7,3,3,5.2c0.1,0.4,0.2,0.7,0.5,1c0.3,0.3,0.6,0.4,1,0.4c0.5,0,0.9-0.2,1.2-0.5c0.3-0.3,0.4-0.7,0.3-1.1
		c-0.4-2.5-1.6-4.7-3.6-6.7s-4.7-3.1-8.1-3.3c0.8-2.7,2.4-5,4.9-6.8s5-2.7,8-2.7c3.7,0,6.9,1.4,9.5,4.1c2.6,2.8,3.9,6,3.9,9.8v1.2
		c2.5,0,4.5,0.8,6.1,2.4c1.6,1.6,2.5,3.6,2.5,6c0,2.3-0.8,4.3-2.5,6c-1.7,1.7-3.6,2.5-6,2.5H13.4z"/>
	<g>
		<path class="st1" d="M49.1,14c0-0.8,0.1-1.6,0.2-2.3c0.2-0.7,0.4-1.4,0.8-2c0.4-0.6,0.9-1,1.5-1.4C52.3,8,53.1,7.8,54,7.8
			c0.9,0,1.8,0.2,2.6,0.7c0.8,0.4,1.6,1,2.3,1.8l20.4,21.3V8.3H86V34c0,0.8-0.1,1.6-0.3,2.3s-0.5,1.4-0.9,2
			c-0.4,0.6-0.9,1.1-1.5,1.4c-0.6,0.3-1.4,0.5-2.3,0.5c-1.1,0-2-0.2-2.7-0.7s-1.5-1-2.2-1.8L55.7,16.5v23.3h-6.6V14z"/>
		<path class="st1" d="M87.4,13.3c0-0.7,0.1-1.4,0.4-2c0.3-0.6,0.6-1.1,1.1-1.6c0.4-0.4,1-0.8,1.6-1.1c0.6-0.3,1.2-0.4,1.9-0.4h28
			c0.7,0,1.4,0.1,2,0.4c0.6,0.3,1.1,0.6,1.6,1.1c0.5,0.5,0.8,1,1.1,1.6c0.3,0.6,0.4,1.2,0.4,1.9v13.6c0,0.7-0.1,1.4-0.4,2
			s-0.6,1.1-1.1,1.6c-0.5,0.5-1,0.8-1.6,1.1c-0.6,0.3-1.2,0.4-1.9,0.4H94v7.9h-6.6V13.3z M118.8,25.5V14.7H94v10.8H118.8z"/>
		<path class="st1" d="M126.5,8.3h6.6v25.1h24.1v6.4h-25.7c-0.7,0-1.4-0.1-2-0.4c-0.6-0.3-1.1-0.6-1.6-1.1c-0.5-0.4-0.8-1-1.1-1.6
			s-0.4-1.2-0.4-1.9V8.3z"/>
	</g>
</g>
</svg>
